<?xml version="1.0" encoding="utf-8"?>
<!-- Generator: Adobe Illustrator 24.0.0, SVG Export Plug-In . SVG Version: 6.00 Build 0)  -->
<svg version="1.1" id="Livello_1" xmlns="http://www.w3.org/2000/svg" xmlns:xlink="http://www.w3.org/1999/xlink" x="0px" y="0px"
	 viewBox="0 0 492 332" style="enable-background:new 0 0 492 332;" xml:space="preserve">
<style type="text/css">
	.st0{opacity:0.2;fill:#C0C0C0;enable-background:new    ;}
	.st1{fill:#FFFFFF;}
	.st2{fill:none;stroke:#000000;stroke-miterlimit:10;}
	.st3{font-family:'Arial-BoldMT';}
	.st4{font-size:13px;}
</style>
<g>
	<g transform="translate(-254,-102) scale(1,1)">
		<rect x="271" y="119" class="st0" width="188.8" height="15"/>
	</g>
	<g transform="translate(-254,-102) scale(1,1)">
		<rect x="271" y="133" class="st0" width="472" height="298"/>
	</g>
	<g transform="translate(-254,-102) scale(1,1)">
		<rect x="264" y="127" class="st1" width="472" height="297"/>
	</g>
	<g transform="translate(-254,-102) scale(1,1)">
		<path class="st2" d="M264,127h472v297H264V127z"/>
	</g>
	<g transform="translate(-254,-102) scale(1,1)">
		<rect x="264" y="112" class="st1" width="188.8" height="15"/>
	</g>
	<g transform="translate(-254,-102) scale(1,1)">
		<path class="st2" d="M264,112h188.8v15H264V112z"/>
	</g>
	<g transform="translate(-254,-102) scale(1,1)">
		<rect x="264" y="126" class="st1" width="472" height="298"/>
	</g>
	<g transform="translate(-254,-102) scale(1,1)">
		<path class="st2" d="M264,126h472v298H264V126z"/>
	</g>
	<g transform="translate(-254,-102) scale(1,1)">
		<g>
			<path class="st2" d="M0,0"/>
			<text transform="matrix(1 0 0 1 484.4641 146.5)" class="st3 st4">entity</text>
		</g>
	</g>
	<g transform="translate(-254,-102) scale(1,1)">
		<rect x="543" y="199" class="st0" width="60.8" height="15"/>
	</g>
	<g transform="translate(-254,-102) scale(1,1)">
		<rect x="543" y="213" class="st0" width="152" height="66"/>
	</g>
	<g transform="translate(-254,-102) scale(1,1)">
		<rect x="536" y="207" class="st1" width="152" height="65"/>
	</g>
	<g transform="translate(-254,-102) scale(1,1)">
		<path class="st2" d="M536,207h152v65H536V207z"/>
	</g>
	<g transform="translate(-254,-102) scale(1,1)">
		<rect x="536" y="192" class="st1" width="60.8" height="15"/>
	</g>
	<g transform="translate(-254,-102) scale(1,1)">
		<path class="st2" d="M536,192h60.8v15H536V192z"/>
	</g>
	<g transform="translate(-254,-102) scale(1,1)">
		<rect x="536" y="206" class="st1" width="152" height="66"/>
	</g>
	<g transform="translate(-254,-102) scale(1,1)">
		<path class="st2" d="M536,206h152v66H536V206z"/>
	</g>
	<g transform="translate(-254,-102) scale(1,1)">
		<g>
			<path class="st2" d="M0,0"/>
			<text transform="matrix(1 0 0 1 596.4705 226.5)" class="st3 st4">items</text>
		</g>
	</g>
	<g transform="translate(-254,-102) scale(1,1)">
		<rect x="327" y="199" class="st0" width="57.6" height="15"/>
	</g>
	<g transform="translate(-254,-102) scale(1,1)">
		<rect x="327" y="213" class="st0" width="144" height="66"/>
	</g>
	<g transform="translate(-254,-102) scale(1,1)">
		<rect x="320" y="207" class="st1" width="144" height="65"/>
	</g>
	<g transform="translate(-254,-102) scale(1,1)">
		<path class="st2" d="M320,207h144v65H320V207z"/>
	</g>
	<g transform="translate(-254,-102) scale(1,1)">
		<rect x="320" y="192" class="st1" width="57.6" height="15"/>
	</g>
	<g transform="translate(-254,-102) scale(1,1)">
		<path class="st2" d="M320,192h57.6v15H320V192z"/>
	</g>
	<g transform="translate(-254,-102) scale(1,1)">
		<rect x="320" y="206" class="st1" width="144" height="66"/>
	</g>
	<g transform="translate(-254,-102) scale(1,1)">
		<path class="st2" d="M320,206h144v66H320V206z"/>
	</g>
	<g transform="translate(-254,-102) scale(1,1)">
		<g>
			<path class="st2" d="M0,0"/>
			<text transform="matrix(1 0 0 1 361.655 226.5)" class="st3 st4">characters</text>
		</g>
	</g>
	<g transform="translate(-254,-102) scale(1,1)">
		<rect x="327" y="319" class="st0" width="57.6" height="15"/>
	</g>
	<g transform="translate(-254,-102) scale(1,1)">
		<rect x="327" y="333" class="st0" width="144" height="66"/>
	</g>
	<g transform="translate(-254,-102) scale(1,1)">
		<rect x="320" y="327" class="st1" width="144" height="65"/>
	</g>
	<g transform="translate(-254,-102) scale(1,1)">
		<path class="st2" d="M320,327h144v65H320V327z"/>
	</g>
	<g transform="translate(-254,-102) scale(1,1)">
		<rect x="320" y="312" class="st1" width="57.6" height="15"/>
	</g>
	<g transform="translate(-254,-102) scale(1,1)">
		<path class="st2" d="M320,312h57.6v15H320V312z"/>
	</g>
	<g transform="translate(-254,-102) scale(1,1)">
		<rect x="320" y="326" class="st1" width="144" height="66"/>
	</g>
	<g transform="translate(-254,-102) scale(1,1)">
		<path class="st2" d="M320,326h144v66H320V326z"/>
	</g>
	<g transform="translate(-254,-102) scale(1,1)">
		<g>
			<path class="st2" d="M0,0"/>
			<text transform="matrix(1 0 0 1 373.9409 346.5)" class="st3 st4">rooms</text>
		</g>
	</g>
</g>
</svg>
